0
SECTION
2
HEADER
9
$INSUNITS
70
4
9
$ACADVER
1
AC1014
9
$HANDSEED
5
FFFF
0
ENDSEC
0
SECTION
2
TABLES
0
TABLE
2
VPORT
5
8
100
AcDbSymbolTable
0
ENDTAB
0
TABLE
2
LTYPE
5
5
100
AcDbSymbolTable
0
LTYPE
5
14
100
AcDbSymbolTableRecord
100
AcDbLinetypeTableRecord
2
BYBLOCK
70
0
0
LTYPE
5
15
100
AcDbSymbolTableRecord
100
AcDbLinetypeTableRecord
2
BYLAYER
70
0
0
ENDTAB
0
TABLE
2
LAYER
5
2
100
AcDbSymbolTable
70
2
0
LAYER
5
50
100
AcDbSymbolTableRecord
100
AcDbLayerTableRecord
2
0
70
0
6
CONTINUOUS
0
ENDTAB
0
TABLE
2
STYLE
5
3
100
AcDbSymbolTable
70
1
0
STYLE
5
11
100
AcDbSymbolTableRecord
100
AcDbTextStyleTableRecord
2
STANDARD
70
0
0
ENDTAB
0
TABLE
2
VIEW
5
6
100
AcDbSymbolTable
70
0
0
ENDTAB
0
TABLE
2
UCS
5
7
100
AcDbSymbolTable
70
0
0
ENDTAB
0
TABLE
2
APPID
5
9
100
AcDbSymbolTable
70
2
0
APPID
5
12
100
AcDbSymbolTableRecord
100
AcDbRegAppTableRecord
2
ACAD
70
0
0
ENDTAB
0
TABLE
2
DIMSTYLE
5
A
100
AcDbSymbolTable
70
1
0
ENDTAB
0
TABLE
2
BLOCK_RECORD
5
1
100
AcDbSymbolTable
70
1
0
BLOCK_RECORD
5
1F
100
AcDbSymbolTableRecord
100
AcDbBlockTableRecord
2
*MODEL_SPACE
0
BLOCK_RECORD
5
1B
100
AcDbSymbolTableRecord
100
AcDbBlockTableRecord
2
*PAPER_SPACE
0
ENDTAB
0
ENDSEC
0
SECTION
2
BLOCKS
0
BLOCK
5
20
100
AcDbEntity
100
AcDbBlockBegin
2
*MODEL_SPACE
0
ENDBLK
5
21
100
AcDbEntity
100
AcDbBlockEnd
0
BLOCK
5
1C
100
AcDbEntity
100
AcDbBlockBegin
2
*PAPER_SPACE
0
ENDBLK
5
1D
100
AcDbEntity
100
AcDbBlockEnd
0
ENDSEC
0
SECTION
2
ENTITIES
0
LWPOLYLINE
5
100
100
AcDbEntity
8
0
100
AcDbPolyline
90
52
70
1
43
0.0
10
-13.999997259823598
20
-9.6999999999789921
42
0.41421356237292006
10
-15.499997259822704
20
-8.1999999999789921
10
-21.599995830426817
20
-8.1999999999753577
10
-21.599995830428966
20
-11.802011842965964
42
0.22778509009001827
10
-19.724253470105328
20
-15.705729852167041
10
19.724255791772439
20
-15.705729852190553
42
0.22778493465218913
10
21.599995861000338
20
-11.802013692591915
10
21.599995871233912
20
-8.2000000000011077
10
15.499997300633488
20
-8.1999999999974715
42
0.41421356237326934
10
13.999997300632591
20
-9.6999999999974662
10
13.99999730063259
20
-11.199999999980136
42
-0.41421356237309503
10
12.499997300632586
20
-12.699999999980133
10
7.4999973006316871
20
-12.699999999980118
42
-0.41421356237292034
10
5.9999973006316907
20
-11.19999999998101
10
5.9999973006308007
20
-9.6999999999900215
42
0.41421356237274609
10
4.4999973006316951
20
-8.1999999999909114
10
4.0000000204036095
20
-8.1999999999906166
42
-0.41421356237292073
10
2.5000000204045039
20
-6.699999999990613
10
2.5000000204045252
20
6.6999999999945814
42
-0.4142135623730947
10
4.0000000204045261
20
8.1999999999945796
10
4.4999973006307981
20
8.1999999999945796
42
0.41421356237292162
10
5.9999973006307989
20
9.6999999999936861
10
5.9999973006316925
20
11.199999999981005
42
-0.41421356237292034
10
7.4999973006316871
20
12.699999999980115
10
12.499997300632586
20
12.699999999980127
42
-0.41421356237309503
10
13.99999730063259
20
11.199999999980133
10
13.999997300632593
20
9.6999999999945725
42
0.41421356237309437
10
15.499997300632593
20
8.1999999999945778
10
21.599995871233912
20
8.1999999999945761
10
21.599995871233912
20
13.294249482241128
10
18.199995871233906
20
16.694249482243158
10
-18.199995830412252
20
16.694249482264837
10
-21.599995830414006
20
13.294249482266862
10
-21.599995830417043
20
8.1999999999945832
10
-15.499997259823598
20
8.1999999999945832
42
0.41421356237309531
10
-13.999997259823598
20
9.699999999994585
10
-13.999997259823598
20
11.199999999980093
42
-0.41421356237309503
10
-12.499997259823598
20
12.699999999980092
10
-7.4999972598227016
20
12.699999999980092
42
-0.4142135623729199
10
-5.9999972598227016
20
11.199999999980989
10
-5.9999972598218045
20
9.6999999999936843
42
0.41421356237292056
10
-4.4999972598218037
20
8.1999999999945796
10
-3.9999999795954766
20
8.1999999999945796
42
-0.4142135623730957
10
-2.4999999795954753
20
6.699999999994577
10
-2.499999979595497
20
-6.6999999999858506
42
-0.41421356237326901
10
-3.9999999795963914
20
-8.1999999999858471
10
-4.4999972598209093
20
-8.1999999999855486
42
0.41421356237309503
10
-5.9999972598218054
20
-9.6999999999846551
10
-5.9999972598227025
20
-11.199999999980989
42
-0.4142135623729199
10
-7.4999972598227016
20
-12.699999999980092
10
-12.499997259823598
20
-12.699999999980092
42
-0.41421356237309503
10
-13.999997259823598
20
-11.199999999980093
0
ENDSEC
0
SECTION
2
OBJECTS
0
DICTIONARY
5
C
100
AcDbDictionary
3
ACAD_GROUP
350
D
3
ACAD_MLINESTYLE
350
17
0
DICTIONARY
5
D
100
AcDbDictionary
0
DICTIONARY
5
1A
330
C
100
AcDbDictionary
0
DICTIONARY
5
17
100
AcDbDictionary
0
ENDSEC
0
EOF
