0
SECTION
2
HEADER
9
$INSUNITS
70
4
9
$ACADVER
1
AC1014
9
$HANDSEED
5
FFFF
0
ENDSEC
0
SECTION
2
TABLES
0
TABLE
2
VPORT
5
8
100
AcDbSymbolTable
0
ENDTAB
0
TABLE
2
LTYPE
5
5
100
AcDbSymbolTable
0
LTYPE
5
14
100
AcDbSymbolTableRecord
100
AcDbLinetypeTableRecord
2
BYBLOCK
70
0
0
LTYPE
5
15
100
AcDbSymbolTableRecord
100
AcDbLinetypeTableRecord
2
BYLAYER
70
0
0
ENDTAB
0
TABLE
2
LAYER
5
2
100
AcDbSymbolTable
70
2
0
LAYER
5
50
100
AcDbSymbolTableRecord
100
AcDbLayerTableRecord
2
0
70
0
6
CONTINUOUS
0
ENDTAB
0
TABLE
2
STYLE
5
3
100
AcDbSymbolTable
70
1
0
STYLE
5
11
100
AcDbSymbolTableRecord
100
AcDbTextStyleTableRecord
2
STANDARD
70
0
0
ENDTAB
0
TABLE
2
VIEW
5
6
100
AcDbSymbolTable
70
0
0
ENDTAB
0
TABLE
2
UCS
5
7
100
AcDbSymbolTable
70
0
0
ENDTAB
0
TABLE
2
APPID
5
9
100
AcDbSymbolTable
70
2
0
APPID
5
12
100
AcDbSymbolTableRecord
100
AcDbRegAppTableRecord
2
ACAD
70
0
0
ENDTAB
0
TABLE
2
DIMSTYLE
5
A
100
AcDbSymbolTable
70
1
0
ENDTAB
0
TABLE
2
BLOCK_RECORD
5
1
100
AcDbSymbolTable
70
1
0
BLOCK_RECORD
5
1F
100
AcDbSymbolTableRecord
100
AcDbBlockTableRecord
2
*MODEL_SPACE
0
BLOCK_RECORD
5
1B
100
AcDbSymbolTableRecord
100
AcDbBlockTableRecord
2
*PAPER_SPACE
0
ENDTAB
0
ENDSEC
0
SECTION
2
BLOCKS
0
BLOCK
5
20
100
AcDbEntity
100
AcDbBlockBegin
2
*MODEL_SPACE
0
ENDBLK
5
21
100
AcDbEntity
100
AcDbBlockEnd
0
BLOCK
5
1C
100
AcDbEntity
100
AcDbBlockBegin
2
*PAPER_SPACE
0
ENDBLK
5
1D
100
AcDbEntity
100
AcDbBlockEnd
0
ENDSEC
0
SECTION
2
ENTITIES
0
LWPOLYLINE
5
100
100
AcDbEntity
8
0
100
AcDbPolyline
90
32
70
1
43
0.0
10
-33.555742875155218
20
45.899903419362843
42
0.043701749140119969
10
-33.510081225787943
20
45.378477576140284
10
-29.265539350583264
20
21.329395610282731
42
0.14202426326999157
10
-29.019889721753636
20
20.82964123049836
10
-24.277404575158904
20
15.625507052208354
42
0.21099438749638164
10
-23.53827472803102
20
15.299070046400345
10
-22.599995906979714
20
15.299070070557841
42
-0.41421356968705997
10
-21.599995881233106
20
14.299070071333011
10
-21.599995861000348
20
-11.802013692591915
42
0.16715418247761743
10
-20.542305574358672
20
-14.877431404077765
42
-0.34185104995247018
10
-20.492498512784433
20
-28.344938851187962
42
1.1356630512798647
10
-11.325134176809257
20
-33.694361791516307
42
-0.081682072771852257
10
-10.45714793944034
20
-32.323185105355378
42
-0.031616663480250447
10
-9.2000000007525244
20
-31.07895484295851
10
-9.2000000007525262
20
-25.90787904450325
10
9.1999999992474741
20
-25.90787904450325
10
9.1999999992474777
20
-31.078959662645961
42
-0.031616532378539175
10
10.457142409545519
20
-32.323185105312554
42
-0.081682072773081427
10
11.325128646929592
20
-33.694361791492412
42
1.1356630512776196
10
20.492492982921764
20
-28.344938851187969
42
-0.34185120681628939
10
20.542303826267407
20
-14.877431777018622
42
0.16715432725197646
10
21.599995840699652
20
-11.802011842965964
10
21.599995815480018
20
20.732353331651893
42
0.48314127436134002
10
14.257030305943491
20
25.091134330055436
42
-0.18426386657622784
10
-14.257045027079894
20
25.091134330054796
42
0.049578309108626317
10
-15.297463758758569
20
25.373891152818011
42
0.030929508869503436
10
-20.152441574750174
20
26.307832039912739
42
-0.4234039904817738
10
-25.243466704022719
20
33.123481171245984
10
-25.243466704022715
20
51.340991525764039
42
0.41421356237309631
10
-28.243466704022712
20
54.340991525764039
10
-30.555742875155822
20
54.340991525764039
42
0.41421356237312584
10
-33.555742875155829
20
51.340991525763698
0
CIRCLE
5
101
100
AcDbEntity
8
0
100
AcDbCircle
10
-29.973190630101652
20
49.269851606775262
30
0
40
1.25
210
0
220
-0
230
1
0
CIRCLE
5
102
100
AcDbEntity
8
0
100
AcDbCircle
10
-29.342094295797175
20
39.289785604146857
30
0
40
1.7000000000000037
210
0
220
-0
230
1
0
CIRCLE
5
103
100
AcDbEntity
8
0
100
AcDbCircle
10
-16.25000278534236
20
-31.604345239264777
30
0
40
2.5
210
0
220
0
230
1
0
CIRCLE
5
104
100
AcDbEntity
8
0
100
AcDbCircle
10
-15.500002785368142
20
11.695652948754374
30
0
40
2.5
210
0
220
0
230
1
0
CIRCLE
5
105
100
AcDbEntity
8
0
100
AcDbCircle
10
16.24999725546434
20
-31.604345239244786
30
0
40
2.5
210
0
220
0
230
1
0
CIRCLE
5
106
100
AcDbEntity
8
0
100
AcDbCircle
10
15.499997255437542
20
11.695652948773571
30
0
40
2.5
210
0
220
0
230
1
0
CIRCLE
5
107
100
AcDbEntity
8
0
100
AcDbCircle
10
-16.199558869906173
20
19.999067954754327
30
0
40
1.25
210
0
220
0
230
1
0
CIRCLE
5
108
100
AcDbEntity
8
0
100
AcDbCircle
10
9.9999972598114546
20
10.000000000002407
30
0
40
1.7000000000000004
210
0
220
-0
230
1
0
CIRCLE
5
109
100
AcDbEntity
8
0
100
AcDbCircle
10
-10.000002780995228
20
9.999999999990461
30
0
40
1.7000000000000004
210
0
220
-0
230
1
0
CIRCLE
5
110
100
AcDbEntity
8
0
100
AcDbCircle
10
-10.000002780983326
20
-10.000000000009496
30
0
40
1.7000000000000004
210
0
220
-0
230
1
0
CIRCLE
5
111
100
AcDbEntity
8
0
100
AcDbCircle
10
16.199551688005901
20
19.999070830817264
30
0
40
1.25
210
0
220
0
230
1
0
CIRCLE
5
112
100
AcDbEntity
8
0
100
AcDbCircle
10
9.9999972598236937
20
-9.999999999997641
30
0
40
1.7000000000000004
210
0
220
-0
230
1
0
CIRCLE
5
113
100
AcDbEntity
8
0
100
AcDbCircle
10
5.2499999591923601
20
-22.676741299318266
30
0
40
1.7000000000000004
210
0
220
-0
230
1
0
CIRCLE
5
114
100
AcDbEntity
8
0
100
AcDbCircle
10
-5.2500000408076382
20
-22.676741299318266
30
0
40
1.7000000000000004
210
0
220
-0
230
1
0
LWPOLYLINE
5
115
100
AcDbEntity
8
0
100
AcDbPolyline
90
20
70
1
43
0.0
10
-3.4000008316149173
20
1.0031282498881637
42
0.39601163611956425
10
-4.1499992974039106
20
1.8015641249437531
42
-0.39601163611956464
10
-4.8999977631929035
20
2.5999999999993428
10
-4.8999977631990346
20
12.894249482251684
42
-0.41421356237309387
10
-4.0999977631995144
20
13.694249482252165
10
4.0999977223844226
20
13.694249482257092
42
-0.41421356237310197
10
4.8999977223849038
20
12.894249482257553
10
4.8999977223908386
20
2.5968719422673625
42
-0.39601219183567082
10
4.1499977223913493
20
1.7984359711333679
42
0.3960121918356993
10
3.3999977223918605
20
0.99999999999929312
10
3.3999977223932127
20
-1.0000000000014873
42
0.39601219183567143
10
4.1499977223937048
20
-1.7984359711345421
42
-0.39601219183570058
10
4.899997722394196
20
-2.59687194226768
10
4.8999977224001086
20
-12.905729852173959
42
-0.41421356237284768
10
4.0999977224012438
20
-13.70572985217442
10
-4.0999977632066571
20
-13.70572985218606
42
-0.4142135623736552
10
-4.899997763207792
20
-12.905729852185663
10
-4.8999977632026592
20
-2.6000000000004619
42
-0.39601163612157603
10
-4.1499992974081907
20
-1.8015641249444507
42
0.39601163612189139
10
-3.4000008316137227
20
-1.003128249887566
0
CIRCLE
5
116
100
AcDbEntity
8
0
100
AcDbCircle
10
15.499997255437542
20
11.695652948773571
30
0
40
1.7000000000000004
210
0
220
0
230
1
0
CIRCLE
5
117
100
AcDbEntity
8
0
100
AcDbCircle
10
-15.500002785368142
20
11.695652948754374
30
0
40
1.7000000000000015
210
0
220
0
230
1
0
ENDSEC
0
SECTION
2
OBJECTS
0
DICTIONARY
5
C
100
AcDbDictionary
3
ACAD_GROUP
350
D
3
ACAD_MLINESTYLE
350
17
0
DICTIONARY
5
D
100
AcDbDictionary
0
DICTIONARY
5
1A
330
C
100
AcDbDictionary
0
DICTIONARY
5
17
100
AcDbDictionary
0
ENDSEC
0
EOF
